<?xml version="1.0" standalone="no"?>
<!DOCTYPE svg PUBLIC "-//W3C//DTD SVG 20010904//EN"
 "http://www.w3.org/TR/2001/REC-SVG-20010904/DTD/svg10.dtd">
<svg version="1.0" xmlns="http://www.w3.org/2000/svg"
 width="433.000000pt" height="433.000000pt" viewBox="0 0 433.000000 433.000000"
 preserveAspectRatio="xMidYMid meet">
<metadata>
Created by potrace 1.11, written by Peter Selinger 2001-2013
</metadata>
<g transform="translate(0.000000,433.000000) scale(0.100000,-0.100000)"
fill="#000000" stroke="none">
<path d="M1214 3783 c4 -9 187 -331 407 -715 l399 -697 -360 -488 c-340 -460
-362 -488 -398 -496 -98 -22 -151 -41 -200 -74 -65 -44 -103 -91 -145 -180
-30 -64 -32 -74 -32 -183 0 -109 2 -118 33 -184 47 -99 91 -150 165 -186 144
-71 316 -77 445 -18 107 51 198 178 223 313 14 76 6 206 -21 313 -14 58 -20
117 -20 192 0 105 1 109 23 112 17 2 23 11 25 36 2 24 8 32 23 32 17 0 19 8
19 79 0 70 2 79 20 84 15 4 20 14 20 36 0 20 5 31 14 31 9 0 16 17 20 48 3 26
19 74 34 107 38 80 99 132 185 159 10 3 17 15 17 31 0 16 6 25 15 25 11 0 15
12 15 45 l0 45 55 0 55 0 0 -40 c0 -27 5 -43 15 -46 9 -4 15 -19 15 -35 0 -19
5 -29 15 -29 9 0 37 -11 64 -25 80 -40 130 -113 151 -223 8 -38 18 -62 26 -62
7 0 14 -14 16 -32 2 -25 8 -34 26 -36 21 -3 22 -8 22 -78 0 -58 3 -74 14 -74
10 0 16 -13 18 -37 3 -33 7 -38 31 -41 l27 -3 0 -100 c0 -78 -4 -108 -19 -137
-55 -108 -70 -259 -36 -367 53 -168 246 -305 430 -305 115 0 258 62 327 141
l26 31 70 -11 c161 -25 341 -8 418 40 30 18 50 46 40 56 -2 3 -47 -1 -100 -7
-113 -13 -224 -1 -299 33 l-49 22 -2 135 c-1 131 -2 137 -34 203 -62 125 -173
208 -327 242 l-74 17 -173 241 c-95 133 -241 333 -325 444 l-151 203 414 712
c227 391 411 714 408 717 -9 9 -27 -14 -534 -652 -256 -322 -468 -586 -471
-586 -4 -1 -231 278 -505 619 -274 341 -502 620 -507 620 -5 0 -6 -8 -3 -17z
m1979 -2486 c51 -22 124 -93 155 -152 23 -43 27 -63 27 -136 0 -75 -4 -92 -30
-144 -76 -149 -257 -214 -407 -147 -189 83 -248 326 -119 490 85 106 241 144
374 89z m-1770 -63 c26 -9 70 -36 97 -61 170 -153 135 -420 -68 -520 -75 -37
-191 -40 -263 -6 -142 65 -216 218 -179 371 21 91 105 183 197 217 52 19 159
18 216 -1z"/>
<path d="M2911 1802 c2 -6 33 -49 69 -96 l65 -84 95 -6 c288 -20 625 -58 804
-91 37 -7 38 -7 26 15 -18 34 -79 98 -113 119 -84 52 -501 124 -846 147 -75 5
-103 4 -100 -4z"/>
<path d="M1280 1763 c-291 -20 -478 -42 -660 -79 -143 -28 -333 -85 -402 -120
l-48 -24 21 -58 c12 -31 25 -60 29 -65 3 -4 60 6 125 23 127 33 405 83 413 75
7 -7 -14 -12 -128 -30 -134 -21 -400 -85 -400 -96 0 -16 221 -614 230 -623 4
-4 85 6 182 25 l173 32 0 136 c0 171 17 220 108 317 64 69 171 130 270 155 38
9 56 22 92 64 25 29 45 55 45 59 0 4 -28 4 -62 1 -35 -3 -121 -10 -193 -15
-71 -6 -146 -13 -165 -17 -24 -4 -32 -2 -25 5 10 10 157 26 352 38 l112 7 75
93 c42 51 76 95 76 98 0 6 -134 5 -220 -1z m-436 -209 c9 -3 16 -12 16 -20 0
-19 -58 -190 -132 -390 l-61 -165 -28 35 c-16 19 -42 37 -58 41 l-29 6 63 94
c53 80 142 269 170 365 11 36 28 46 59 34z m-241 -566 c37 -43 6 -108 -53
-108 -33 0 -70 33 -70 63 0 67 78 96 123 45z"/>
<path d="M533 954 c-8 -21 13 -42 28 -27 13 13 5 43 -11 43 -6 0 -13 -7 -17
-16z"/>
<path d="M3075 1588 c17 -28 49 -58 64 -58 65 -1 243 -95 308 -162 81 -84 133
-219 133 -342 l0 -56 363 0 c199 0 368 4 375 9 11 7 11 14 -3 42 -23 45 -20
43 -76 49 l-50 5 -40 104 c-59 159 -138 310 -163 316 -12 3 -56 11 -98 19
l-77 13 -3 -81 -3 -81 -62 -3 c-39 -2 -63 1 -63 8 0 6 23 10 55 10 l55 0 0 75
c0 43 -4 75 -10 75 -5 0 -10 -22 -10 -50 l0 -50 -48 0 c-46 0 -49 2 -61 36
-17 46 -49 44 -73 -6 l-16 -35 -4 64 c-2 40 -8 66 -15 69 -10 3 -13 -19 -13
-87 0 -87 1 -91 22 -91 16 0 19 -3 11 -11 -7 -7 -19 -9 -27 -6 -13 5 -16 24
-16 102 0 68 -4 97 -12 100 -7 2 -71 9 -143 14 -306 24 -308 24 -300 9z m575
-149 c12 -42 7 -103 -11 -129 -28 -43 -56 100 -29 151 16 29 28 23 40 -22z"/>
<path d="M10 1539 c0 -8 62 -180 138 -384 l137 -370 68 -14 c37 -8 70 -11 73
-8 6 6 -271 731 -288 753 -5 6 -25 14 -46 18 -20 3 -47 9 -59 12 -16 4 -23 2
-23 -7z"/>
</g>
</svg>
